<svg width="72" height="62" viewBox="0 0 72 62" fill="none" xmlns="http://www.w3.org/2000/svg">
<g clip-path="url(#clip0_71_2)">
<path d="M68.0702 52.2945C67.9716 52.2979 67.8799 52.3118 67.7795 52.3118C65.3844 52.3118 62.2557 51.3842 58.2426 49.9133C58.1889 49.896 56.4446 49.3284 55.5828 49.0151C52.5111 48.8698 50.938 48.9978 49.8928 49.0809C48.6434 49.183 48.0186 49.2314 46.6325 48.6327C44.3828 47.6601 43.1576 45.985 42.2647 44.7615C42.0432 44.4587 41.8407 44.1801 41.6434 43.9447C40.3247 42.3751 40.439 40.2293 41.9082 38.9521C43.9865 37.1507 50.964 36.7198 53.2171 38.2513C54.1637 38.8968 54.6431 39.4401 55.029 39.8762C55.4564 40.3608 55.6918 40.6273 56.4099 40.8471C56.609 40.9076 57.4535 41.0893 57.9761 41.1966C60.0838 41.3005 62.7367 40.2656 63.6107 39.923C66.7412 38.6978 66.826 34.1171 66.8277 34.0721L66.8312 33.7813C62.1293 29.3962 55.3855 27.6882 52.3294 26.9198C51.4312 26.6931 50.8879 26.5564 50.5781 26.4145C50.0001 26.1463 49.5796 25.6479 49.3581 24.9764C48.7524 23.1248 49.7197 20.0496 50.9467 17.8225C51.3499 17.0905 54.7971 10.492 51.8119 4.0008C51.3378 2.97114 50.4777 2.04358 49.3217 1.30811H37.4919C35.841 2.44852 34.7888 4.07348 34.3614 6.14146C33.5376 10.132 34.1848 12.2588 34.8719 14.5102C35.3131 15.9587 35.77 17.4573 35.9033 19.4976C36.1628 23.464 34.4877 25.3381 33.4148 26.122L33.2348 26.2449C32.9614 26.4249 32.7433 26.5339 32.636 26.5789L32.4959 26.6499C20.3476 31.2184 13.4445 40.8107 13.377 42.6105C15.0764 43.159 20.5137 42.633 22.2598 42.0982C23.0143 41.8681 23.2618 41.5877 23.7117 41.079C24.1115 40.6238 24.6116 40.0597 25.5963 39.39C27.6815 37.9709 33.6363 38.1751 36.4466 39.5544C36.8602 39.7447 37.2133 39.9576 37.4867 40.1929C39.0044 41.5099 39.1238 43.7267 37.7618 45.3516C37.5542 45.5973 37.3431 45.8898 37.1112 46.2065C36.1819 47.4784 34.9082 49.2193 32.5737 50.2282C31.1357 50.8495 30.5265 50.8028 29.1906 50.6937C28.1073 50.6072 26.4806 50.4774 23.3154 50.6228C20.82 52.0643 19.1656 52.9711 14.495 55.2589L12.8025 56.1224C12.5222 56.6831 12.4062 59.4138 12.4703 61.9231L65.6821 61.9525C67.0198 61.9525 68.11 60.8848 68.11 59.573L68.0702 52.2945Z" fill="#8FDCEC"/>
<path d="M7.93404 58.1873C6.88535 58.606 6.00797 58.9193 5.25 59.1633C5.41267 60.7052 6.72268 61.9131 8.33206 61.9131H11.075C11.0248 60.0251 11.0542 57.9917 11.3086 56.6333C10.0955 57.2061 8.94294 57.7391 7.93404 58.1873Z" fill="#E42313"/>
<path d="M71.7889 43.0087C71.3407 40.8732 70.2885 38.9229 69.0045 37.1007V3.75177C69.0045 1.6838 67.2999 0 65.2042 0H8.47772C6.38205 0 4.67749 1.6838 4.67749 3.75177V37.7167C3.88491 38.8952 3.20482 40.1845 2.69085 41.6052C-0.797883 51.2685 -0.55388 57.3114 1.48987 58.2857C1.72349 58.3965 2.84833 58.6197 7.41345 56.7992C12.0201 54.7433 19.9926 50.8047 22.623 49.2835L22.7666 49.2005L22.9328 49.1918C26.2917 49.0274 28.0119 49.1659 29.1488 49.2576C30.3792 49.3562 30.753 49.3856 31.8778 48.9011C33.8714 48.0393 34.9703 46.5355 35.8546 45.3258C36.1055 44.9832 36.3357 44.6682 36.5589 44.4035C37.2978 43.5244 37.5055 42.088 36.4378 41.1622C36.3322 41.0705 36.2093 40.984 36.0709 40.9009C33.8403 39.6947 28.2212 39.4421 26.5098 40.6067C25.6687 41.1795 25.2517 41.6519 24.8831 42.069C24.3933 42.6245 23.9295 43.1488 22.8047 43.4932C21.1244 44.0072 14.493 44.8551 12.5739 43.7822C12.5548 43.7718 12.5341 43.758 12.5133 43.7441C12.4873 43.7303 12.4527 43.7216 12.4285 43.7078C12.1949 43.5763 11.809 43.2423 11.8678 42.4791C12.091 39.5147 19.496 30.2911 30.9572 25.6533C30.1058 24.634 28.8737 22.7321 29.2682 20.5915C29.4049 19.8491 29.8064 18.9873 30.2736 17.9905C31.7152 14.905 33.8939 10.243 31.0126 3.45066C30.6561 2.61136 30.0521 1.94338 29.462 1.3723H65.206C66.5437 1.3723 67.6339 2.44004 67.6339 3.7535V37.2183C67.1044 38.7516 66.0833 40.4267 64.1192 41.1951C62.4717 41.8406 60.0282 42.6868 57.8564 42.557L57.7595 42.5449C57.5259 42.4964 56.3422 42.2524 56.0152 42.1521C54.9301 41.8198 54.4819 41.3128 54.0095 40.778C53.6565 40.38 53.2584 39.9283 52.4537 39.3798C50.7215 38.203 44.4137 38.5958 42.8147 39.982C41.8041 40.8611 42.0014 42.2213 42.7023 43.0554C42.9168 43.3115 43.1383 43.6144 43.3806 43.9449C44.2268 45.1026 45.279 46.5424 47.186 47.3661C48.2572 47.8299 48.5808 47.8022 49.7922 47.707C50.5173 47.6482 51.4881 47.5721 53.0006 47.5721C53.7689 47.5721 54.6757 47.5928 55.7625 47.6447L55.8681 47.6499L55.9667 47.6863C56.7576 47.9805 58.6784 48.6052 58.6975 48.6121C64.3736 50.6922 68.2846 51.6924 70.3179 50.2734C71.3009 49.5881 71.8477 48.2816 71.9879 46.3088C71.9931 46.1409 72 45.9765 72 45.7965C72 44.8326 71.9256 43.9068 71.7889 43.0087ZM18.539 24.1391C18.2188 25.8505 16.1353 27.3994 13.4962 29.3583C11.0839 31.1494 8.30813 33.2122 6.04806 35.8997V3.75177C6.04806 2.44004 7.13829 1.37057 8.47772 1.37057H16.6025C14.8097 3.08552 13.7558 5.42519 13.5568 8.17153C13.1951 13.1641 15.1506 16.3465 16.7219 18.9025C17.8727 20.7715 18.8643 22.386 18.539 24.1391Z" fill="#E42313"/>
</g>
<defs>
<clipPath id="clip0_71_2">
<rect width="72" height="62" fill="white"/>
</clipPath>
</defs>
</svg>
