<svg width="16" height="13" viewBox="0 0 16 13" fill="none" xmlns="http://www.w3.org/2000/svg">
<mask id="mask0_74_9" style="mask-type:luminance" maskUnits="userSpaceOnUse" x="0" y="0" width="16" height="13">
<path d="M16 0H0V13H16V0Z" fill="white"/>
</mask>
<g mask="url(#mask0_74_9)">
<path d="M8.3648 9.26309C10.4652 9.26309 11.6577 8.24119 12.7931 6.76509C13.4179 5.97009 14.2124 5.79999 14.7806 6.25419C15.3482 6.70839 15.4049 7.56009 14.7806 8.35459C13.1338 10.5123 11.0334 11.8182 8.3648 11.8182C5.46931 11.8182 2.91462 10.2282 1.15446 7.44619C0.643523 6.70839 0.756963 5.91339 1.32462 5.51589C1.89227 5.11839 2.74399 5.28899 3.25493 6.08399C4.50415 7.95709 6.2071 9.26309 8.3648 9.26309ZM12.2821 2.2801C12.2821 3.30197 11.4871 3.98306 10.5787 3.98306C9.6702 3.98306 8.8752 3.30197 8.8752 2.2801C8.8752 1.25822 9.6702 0.57666 10.5787 0.57666C11.4871 0.57666 12.2821 1.31447 12.2821 2.2801Z" fill="white"/>
</g>
</svg>
